<svg width="62" height="55" viewBox="0 0 62 55" fill="none" xmlns="http://www.w3.org/2000/svg">
    <path d="M39.5 13.75H17V3C17 1.34 18.34 0 20 0H39.5V13.75Z" fill="#1DA366"/>
    <path d="M62 13.75H39.5V0H59C60.66 0 62 1.34 62 3V13.75Z" fill="#4DB47E"/>
    <path d="M17 27.5V41.25V52C17 53.66 18.34 55 19.99 55H59.02C60.67 55 62.01 53.66 62.01 52V41.25V27.5H17Z" fill="#195D38"/>
    <path d="M39.5 13.75H17V27.5H39.5V13.75Z" fill="#0A7D41"/>
    <path d="M62 13.75H39.5V27.5H62V13.75Z" fill="#1DA366"/>
    <path d="M62 27.5H39.5V41.25H62V27.5Z" fill="#0A7D41"/>
    <g filter="url(#filter0_d_5_391)">
        <path d="M31 42.5H3C2.45 42.5 2 42.05 2 41.5V13.5C2 12.95 2.45 12.5 3 12.5H31C31.55 12.5 32 12.95 32 13.5V41.5C32 42.05 31.55 42.5 31 42.5Z" fill="url(#paint0_linear_5_391)"/>
    </g>
    <path d="M21.08 36L18.83 32.79L16.99 30.2L12.83 36H8.53003L14.7 27.43L8.83002 19H13.09L15.37 22.26L16.99 24.67L18.6 22.26L20.85 19H25.11L19.24 27.43L25.45 36H21.08Z" fill="white"/>
    <defs>
        <filter id="filter0_d_5_391" x="0" y="8.5" width="38" height="38" filterUnits="userSpaceOnUse" color-interpolation-filters="sRGB">
            <feFlood flood-opacity="0" result="BackgroundImageFix"/>
            <feColorMatrix in="SourceAlpha" type="matrix" values="0 0 0 0 0 0 0 0 0 0 0 0 0 0 0 0 0 0 127 0" result="hardAlpha"/>
            <feOffset dx="2"/>
            <feGaussianBlur stdDeviation="2"/>
            <feComposite in2="hardAlpha" operator="out"/>
            <feColorMatrix type="matrix" values="0 0 0 0 0 0 0 0 0 0 0 0 0 0 0 0 0 0 0.25 0"/>
            <feBlend mode="normal" in2="BackgroundImageFix" result="effect1_dropShadow_5_391"/>
            <feBlend mode="normal" in="SourceGraphic" in2="effect1_dropShadow_5_391" result="shape"/>
        </filter>
        <linearGradient id="paint0_linear_5_391" x1="-13.7259" y1="4.3409" x2="31.8911" y2="38.7239" gradientUnits="userSpaceOnUse">
            <stop offset="0.1123" stop-color="#17874E"/>
            <stop offset="0.8823" stop-color="#0F6B35"/>
        </linearGradient>
    </defs>
</svg>
